<?xml version="1.0" encoding="UTF-8" standalone="no"?>
<svg
   xmlns:dc="http://purl.org/dc/elements/1.1/"
   xmlns:cc="http://creativecommons.org/ns#"
   xmlns:rdf="http://www.w3.org/1999/02/22-rdf-syntax-ns#"
   xmlns:svg="http://www.w3.org/2000/svg"
   xmlns="http://www.w3.org/2000/svg"
   xmlns:sodipodi="http://sodipodi.sourceforge.net/DTD/sodipodi-0.dtd"
   xmlns:inkscape="http://www.inkscape.org/namespaces/inkscape"
   id="svg8"
   version="1.1"
   viewBox="0 0 66.145832 66.145835"
   height="250"
   width="250"
   sodipodi:docname="ARM.svg"
   inkscape:version="0.92.1 r15371">
  <sodipodi:namedview
     pagecolor="#ffffff"
     bordercolor="#666666"
     borderopacity="1"
     objecttolerance="10"
     gridtolerance="10"
     guidetolerance="10"
     inkscape:pageopacity="0"
     inkscape:pageshadow="2"
     inkscape:window-width="1920"
     inkscape:window-height="1017"
     id="namedview7"
     showgrid="false"
     inkscape:zoom="0.70710678"
     inkscape:cx="313.67151"
     inkscape:cy="84.65038"
     inkscape:window-x="-8"
     inkscape:window-y="88"
     inkscape:window-maximized="1"
     inkscape:current-layer="svg8"
     inkscape:snap-object-midpoints="true"
     inkscape:snap-bbox="true" />
  <defs
     id="defs2">
    <clipPath
       clipPathUnits="userSpaceOnUse"
       id="clipPath4497">
      <rect
         style="fill:#152842;fill-opacity:1;stroke-width:0.26458332"
         id="rect4499"
         width="32.932777"
         height="10.090042"
         x="85.344933"
         y="29.989847"
         clip-path="none" />
    </clipPath>
    <filter
       style="color-interpolation-filters:sRGB;"
       inkscape:label="Invert"
       id="filter5192">
      <feColorMatrix
         values="-1 0 0 0 1 0 -1 0 0 1 0 0 -1 0 1 -0.21 -0.72 -0.07 2 0 "
         result="color2"
         id="feColorMatrix5190" />
    </filter>
  </defs>
  <metadata
     id="metadata5">
    <rdf:RDF>
      <cc:Work
         rdf:about="">
        <dc:format>image/svg+xml</dc:format>
        <dc:type
           rdf:resource="http://purl.org/dc/dcmitype/StillImage" />
        <dc:title></dc:title>
      </cc:Work>
    </rdf:RDF>
  </metadata>
  <text
     xml:space="preserve"
     style="font-style:normal;font-weight:normal;font-size:10.58333302px;line-height:1.25;font-family:sans-serif;letter-spacing:0px;word-spacing:0px;fill:#000000;fill-opacity:1;stroke:none;stroke-width:0.26458332"
     x="85.063538"
     y="22.423437"
     id="text4776"><tspan
       sodipodi:role="line"
       id="tspan4774"
       x="85.063538"
       y="32.078934"
       style="stroke-width:0.26458332" /></text>
  <path
     inkscape:connector-curvature="0"
     style="font-style:normal;font-variant:normal;font-weight:normal;font-stretch:normal;font-size:medium;line-height:1.25;font-family:Helvetica87-CondensedHeavy;-inkscape-font-specification:Helvetica87-CondensedHeavy;letter-spacing:0px;word-spacing:0px;fill:#152842;fill-opacity:1;stroke:none;stroke-width:0.43048334"
     d="m 15.995664,3.9303513 c -1.84387,0 -1.78675,-0.0747 -1.83245,2.40037 l -0.0367,1.9621497 0.34314,0.3426198 c 0.33328,0.33328 0.3741,0.3431302 1.44745,0.3431302 1.14717,0 1.68343,-0.1532699 1.8247,-0.5214101 0.0393,-0.1021599 0.0713,-1.0358896 0.0713,-2.0748096 0,-1.85258 -0.005,-1.89422 -0.28164,-2.17041 -0.26467,-0.26467 -0.35677,-0.28164 -1.53582,-0.28164 z m 5.64668,0 c -1.12168,0 -1.21896,0.0185 -1.48208,0.28164 -0.27663,0.2764 -0.28163,0.31691 -0.28163,2.18746 0,1.9890396 0.0601,2.2886898 0.49506,2.4639296 0.13786,0.0556 0.75809,0.1040001 1.37821,0.1080101 1.09747,0.007 1.13651,-0.00201 1.46296,-0.32815 l 0.33538,-0.33538 V 6.5152013 c 0,-1.86134 -0.10185,-2.35253 -0.52142,-2.51354 -0.10215,-0.0392 -0.72619,-0.0713 -1.38648,-0.0713 z m 5.75314,0 c -1.12503,0 -1.3077,0.0277 -1.52755,0.23255 -0.35705,0.33234 -0.38887,0.56351 -0.34727,2.5156 l 0.0372,1.7466696 0.32195,0.2769801 c 0.29593,0.2543199 0.41906,0.27647 1.52548,0.27647 1.12484,0 1.22196,-0.018399 1.48518,-0.2816302 0.27662,-0.2772198 0.28164,-0.3127298 0.28164,-2.2587795 0,-2.57109 0.0447,-2.50786 -1.77664,-2.50786 z m 5.677689,0 c -1.198091,0 -1.28928,0.0165 -1.554429,0.28164 -0.277212,0.27698 -0.282022,0.31338 -0.278011,2.20865 0.004,1.9946897 0.0358,2.1460396 0.51263,2.4194897 0.3019,0.1730999 2.295131,0.1770898 2.61792,0.005 0.497609,-0.2650501 0.52982,-0.4120002 0.53382,-2.4246597 0.004,-1.89526 -0.0011,-1.93167 -0.278021,-2.20865 -0.26515,-0.26515 -0.35583,-0.28164 -1.553909,-0.28164 z m 5.69526,0 c -1.841159,0 -1.794201,-0.065 -1.794201,2.49184 0,1.9631196 0.004,1.9973995 0.281631,2.2747995 0.26321,0.2632102 0.360341,0.2816302 1.48518,0.2816302 1.10684,0 1.228921,-0.022299 1.524971,-0.2769801 L 40.587962,8.424651 V 6.4738613 c 0,-1.9071 -0.006,-1.95801 -0.278019,-2.2474 -0.266351,-0.28352 -0.33174,-0.29611 -1.54151,-0.29611 z m 5.735571,0 c -0.660291,0 -1.28433,0.0321 -1.38648,0.0713 -0.419571,0.16101 -0.52142,0.65219 -0.52142,2.51354 v 1.7926596 l 0.335378,0.33538 c 0.324242,0.32423 0.371922,0.3353801 1.439712,0.3353801 1.14717,0 1.683938,-0.15327 1.82521,-0.52142 0.0392,-0.10215 0.0713,-1.0358797 0.0713,-2.0748097 0,-1.85257 -0.005,-1.89421 -0.28163,-2.1704 -0.26312,-0.26313 -0.3604,-0.28164 -1.482079,-0.28164 z m 5.592419,0 c -1.12168,0 -1.21896,0.0185 -1.48208,0.28164 -0.27663,0.27672 -0.28163,0.3152 -0.28163,2.21537 0,2.0090295 0.0307,2.1534097 0.516239,2.4189696 0.126201,0.069 0.736902,0.12679 1.357032,0.1286701 1.09524,0.003 1.137169,-0.006 1.46295,-0.33176 l 0.335389,-0.33538 V 6.5152013 c 0,-1.86134 -0.101849,-2.35253 -0.52142,-2.51354 -0.10215,-0.0392 -0.726181,-0.0713 -1.38648,-0.0713 z m -36.470639,7.2858597 -0.526581,0.2434 c -0.671949,0.31079 -1.32891,0.96722 -1.639699,1.63917 l -0.24339,0.52659 -0.0305,19.103221 c -0.0212,13.215779 0.007,19.285649 0.092,19.694919 0.23731,1.145561 1.13432,2.097471 2.26652,2.403991 0.42909,0.11615 4.49129,0.14133 19.758489,0.124021 l 19.217941,-0.0217 0.52659,-0.243401 c 0.67196,-0.310798 1.32837,-0.967218 1.63917,-1.63917 l 0.243909,-0.526579 V 33.072762 13.625371 l -0.243909,-0.52659 c -0.3108,-0.67195 -0.96721,-1.32838 -1.63917,-1.63917 l -0.52659,-0.2434 H 33.073163 Z m -5.3330075,2.91042 -1.962156,0.0362 c -2.47501,0.0457 -2.400371,-0.0115 -2.400371,1.83244 0,1.17906 0.01699,1.27168 0.281638,1.53634 0.276199,0.27613 0.318347,0.28164 2.170928,0.28164 1.038928,0 1.97214,-0.0321 2.074291,-0.0713 0.368138,-0.14127 0.521414,-0.67752 0.521414,-1.82469 0,-1.07335 -0.0093,-1.11418 -0.342614,-1.44746 z m 49.5602775,0 -0.342612,0.34313 c -0.332949,0.33327 -0.343128,0.37411 -0.343128,1.44746 0,1.10721 0.15448,1.68593 0.485238,1.81901 0.0802,0.0323 1.012881,0.0632 2.072741,0.0682 1.898621,0.009 1.93118,0.005 2.208652,-0.27285 0.264617,-0.26467 0.281638,-0.35729 0.281638,-1.53635 0,-1.84388 0.0747,-1.78671 -2.400369,-1.83244 z m -51.4164965,5.7521 c -1.909951,0 -1.947831,0.005 -2.22467,0.28164 -0.264422,0.26441 -0.281638,0.35725 -0.281638,1.52652 0,1.28413 0.05838,1.48021 0.51625,1.73064 0.137908,0.0754 0.953952,0.12719 2.04535,0.1292 l 1.815913,0.003 0.345715,-0.3452 0.345715,-0.34572 -0.03928,-1.27124 c -0.05366,-1.75783 0.01805,-1.70894 -2.52336,-1.70894 z m 53.2727145,0 c -2.541418,0 -2.469658,-0.0489 -2.52336,1.70894 l -0.0388,1.27124 0.3452,0.34572 0.34572,0.3452 h 1.79265 c 1.861349,0 2.35254,-0.10185 2.51355,-0.52142 0.0392,-0.10215 0.0713,-0.72566 0.0713,-1.38596 0,-1.12168 -0.01849,-1.21896 -0.281639,-1.48208 -0.276831,-0.27682 -0.314722,-0.28164 -2.224672,-0.28164 z m 1.782842,5.60689 -1.88568,0.0362 -1.885669,0.0362 -0.276982,0.32195 c -0.254339,0.29595 -0.276469,0.41905 -0.276469,1.52549 0,1.12484 0.01839,1.22197 0.281639,1.48518 0.2775,0.27752 0.310639,0.28163 2.286161,0.28163 h 2.005039 l 0.23772,-0.3023 c 0.2071,-0.26336 0.23771,-0.461819 0.23771,-1.53893 v -1.23661 l -0.361738,-0.30437 z m -55.9831485,0.0217 c -0.904116,0.008 -1.096399,0.0926 -1.345655,0.36019 -0.204449,0.21946 -0.233061,0.40265 -0.233061,1.51153 0,1.137551 0.02469,1.28815 0.249597,1.52756 0.242202,0.25785 0.307769,0.26562 2.242759,0.26562 1.963119,0 1.99689,-0.004 2.274279,-0.28164 0.263221,-0.26321 0.281636,-0.36034 0.281636,-1.48518 0,-1.10642 -0.02215,-1.22954 -0.276468,-1.52549 l -0.276469,-0.32194 -1.747181,-0.0372 c -0.488021,-0.0104 -0.868064,-0.0162 -1.169437,-0.0134 z m 14.6197785,1.41801 h 3.61632 l 3.06493,12.29484 h -2.9962 l -0.44752,-2.34197 h -2.94452 l -0.43047,2.34197 h -2.9962 z m 7.61504,0 h 4.855518 c 0.596932,0 1.107972,0.0862 1.532721,0.25838 0.424751,0.17219 0.76341,0.40743 1.01596,0.7059 0.26403,0.28699 0.453649,0.62565 0.568439,1.01596 0.126272,0.37882 0.18914,0.78644 0.18914,1.22266 0,0.872449 -0.171868,1.549769 -0.51625,2.03192 -0.34439,0.470662 -0.860999,0.792091 -1.549778,0.964282 v 0.0346 c 0.447709,0.0574 0.803608,0.171969 1.067638,0.344159 0.264031,0.172191 0.458701,0.38462 0.584981,0.63717 0.126241,0.25255 0.206859,0.539501 0.241321,0.86093 0.0459,0.321429 0.0748,0.729041 0.0863,1.222672 0.01151,0.665808 0.0288,1.165188 0.0517,1.4981 0.02289,0.332898 0.0513,0.590949 0.0858,0.774628 0.0344,0.172191 0.0806,0.29894 0.13798,0.379302 0.0689,0.0804 0.160642,0.143219 0.275431,0.18914 v 0.155019 h -3.116601 c -0.114779,-0.206632 -0.1954,-0.49915 -0.241329,-0.87798 -0.0459,-0.37882 -0.0687,-0.918771 -0.0687,-1.61902 0,-1.044641 -0.0862,-1.733121 -0.258381,-2.06602 -0.160719,-0.34439 -0.476571,-0.516771 -0.94723,-0.516771 h -1.101741 v 5.079791 h -2.892848 z m 9.973549,0 h 4.235921 l 1.515668,8.075982 h 0.0341 l 1.463471,-8.075982 h 4.184761 v 12.29484 h -2.686661 v -9.57408 h -0.0341 l -1.87688,9.57408 h -2.238622 l -1.98025,-9.57408 h -0.0346 v 9.57408 H 37.71735 Z m -7.0807,2.03191 v 3.151231 h 0.895549 c 0.52806,0 0.906772,-0.15462 1.136361,-0.464571 0.22959,-0.321429 0.34417,-0.700659 0.34417,-1.13688 0,-0.5051 -0.11458,-0.889389 -0.34417,-1.15342 -0.218109,-0.26403 -0.602911,-0.39636 -1.15393,-0.39636 z m -8.785509,0.206711 -1.01596,5.47563 h 2.10065 l -1.05059,-5.47563 z M 6.4205365,31.240821 c -1.895258,-0.004 -1.93167,0.0011 -2.208649,0.278019 -0.26512,0.265152 -0.281638,0.35583 -0.281638,1.553911 0,1.198081 0.01648,1.289281 0.281638,1.55442 0.276979,0.276881 0.313391,0.281619 2.208649,0.278021 2.492661,-0.005 2.557984,-0.0519 2.557984,-1.832441 0,-1.780529 -0.06532,-1.827231 -2.557984,-1.83193 z m 53.3047565,0 c -2.492661,0.005 -2.557979,0.0514 -2.557979,1.83193 0,1.041731 0.101029,1.42157 0.44907,1.68878 0.125978,0.0967 0.77529,0.141161 2.108909,0.143661 1.895271,0.004 1.93167,-0.0011 2.208652,-0.278021 0.265117,-0.265139 0.281638,-0.356339 0.281638,-1.55442 0,-1.198081 -0.01651,-1.288759 -0.281638,-1.553911 -0.276982,-0.276868 -0.313381,-0.28162 -2.208652,-0.278019 z M 6.4386235,36.97381 c -2.573189,0 -2.508374,-0.0461 -2.508374,1.78852 v 1.289331 l 0.362251,0.304371 0.361736,0.304369 1.885675,-0.0362 1.885672,-0.0362 0.276469,-0.321947 c 0.254341,-0.295942 0.276468,-0.419042 0.276468,-1.525482 0,-1.12485 -0.01841,-1.22197 -0.281636,-1.485188 -0.277209,-0.277212 -0.3122,-0.281631 -2.258261,-0.281631 z m 51.2041105,0 -0.23771,0.302311 c -0.205092,0.260702 -0.23771,0.462491 -0.23771,1.466061 0,1.24183 0.117309,1.585011 0.614429,1.79369 0.135239,0.0568 1.05533,0.0915 2.044319,0.0775 1.728211,-0.02439 1.809702,-0.036 2.093931,-0.303339 0.282051,-0.265272 0.29559,-0.33501 0.29559,-1.504821 0,-1.067189 -0.0308,-1.266079 -0.23771,-1.529098 l -0.23772,-0.30231 H 59.691704 Z M 6.5151065,42.596212 c -1.861351,0 -2.352532,0.10184 -2.513541,0.521409 -0.0392,0.10215 -0.07132,0.725662 -0.07132,1.385961 0,1.12168 0.01852,1.21896 0.281638,1.48208 0.276199,0.276119 0.318347,0.281641 2.170928,0.281641 1.038928,0 1.97213,-0.0321 2.074291,-0.0713 0.368138,-0.141272 0.521414,-0.677532 0.521414,-1.824702 0,-1.067789 -0.01114,-1.115481 -0.335381,-1.439698 l -0.335377,-0.335381 z m 51.3229665,0 -0.345721,0.345191 -0.345199,0.345718 0.0388,1.271241 c 0.0358,1.17371 0.0594,1.28752 0.309539,1.489829 0.242739,0.196371 0.472501,0.219112 2.213819,0.219112 1.909961,0 1.947841,-0.005 2.224672,-0.281641 0.26303,-0.26312 0.281639,-0.3604 0.281639,-1.48208 0,-0.660299 -0.0321,-1.283811 -0.0713,-1.385961 -0.16101,-0.419569 -0.65169,-0.521409 -2.513029,-0.521409 z m -6.125729,4.688599 c 0.11665,-0.02299 0.194638,0.0686 0.22428,0.34571 v 2.104781 2.31253 l -0.0289,0.0625 c -0.037,0.0799 -0.11493,0.157869 -0.19482,0.194821 l -0.0625,0.0289 -2.28513,0.003 c -0.81798,-0.009 -1.648309,0.004 -2.349209,-0.0145 -0.13462,-0.0365 -0.17825,-0.249129 0.0982,-0.52555 l 4.14342,-4.16823 c 0.18292,-0.182909 0.338098,-0.32063 0.45475,-0.343641 z M 6.3828155,48.332812 c -1.852581,0 -1.894729,0.005 -2.170928,0.281631 -0.264422,0.264408 -0.281638,0.35778 -0.281638,1.52704 0,1.284128 0.05838,1.47969 0.51625,1.730129 0.137919,0.0754 0.953952,0.12709 2.04535,0.12919 l 1.815913,0.004 0.335377,-0.33537 c 0.324181,-0.324242 0.335381,-0.372441 0.335381,-1.440231 0,-1.147169 -0.153276,-1.683422 -0.521414,-1.824691 -0.102151,-0.0392 -1.035363,-0.0713 -2.074291,-0.0713 z m 53.3088885,0 c -1.928982,0 -1.96574,0.005 -2.242751,0.281631 -0.26374,0.26366 -0.281639,0.359158 -0.281639,1.500169 0,1.194069 0.007,1.225841 0.335378,1.554429 l 0.335381,0.335381 h 1.79265 c 1.861352,0 2.35254,-0.101851 2.513549,-0.52142 0.0392,-0.10215 0.0713,-0.72618 0.0713,-1.38648 0,-1.121669 -0.01849,-1.218959 -0.281638,-1.482079 -0.27704,-0.277022 -0.313251,-0.281631 -2.242241,-0.281631 z m -36.83289,8.814441 -1.27073,0.0388 c -1.75788,0.0537 -1.70945,-0.01799 -1.70945,2.52336 0,1.909961 0.005,1.947842 0.28163,2.22467 0.26312,0.263131 0.3604,0.281641 1.48208,0.281641 0.66029,0 1.28433,-0.0321 1.38648,-0.0713 0.41957,-0.161009 0.52142,-0.652201 0.52142,-2.51355 v -1.79265 l -0.34572,-0.34572 z m 20.42821,0 -0.34572,0.345199 -0.3452,0.34572 v 1.79265 c 0,1.81469 0.104519,2.354681 0.485249,2.507859 0.0802,0.0323 0.70317,0.0627 1.384411,0.0677 1.16809,0.009 1.254739,-0.007 1.52032,-0.272341 0.276629,-0.276828 0.28163,-0.314708 0.28163,-2.224669 0,-2.5414 0.0484,-2.469701 -1.709452,-2.523361 z m -27.36991,0.0202 c -1.07335,0 -1.11418,0.009 -1.44745,0.342611 l -0.34314,0.343131 0.0362,1.96215 c 0.0352,1.90283 0.0448,1.968799 0.30748,2.18127 0.22966,0.185748 0.46178,0.219098 1.52549,0.219098 1.17905,0 1.27115,-0.01699 1.53582,-0.28163 0.27662,-0.276199 0.28164,-0.317828 0.28164,-2.170409 0,-1.038931 -0.0321,-1.972659 -0.0713,-2.074809 -0.14128,-0.368142 -0.67753,-0.521412 -1.8247,-0.521412 z m 11.48819,0 c -1.10642,0 -1.22955,0.0222 -1.52549,0.27646 l -0.32194,0.276471 -0.0372,1.747179 c -0.0416,1.952091 -0.009,2.18327 0.34726,2.515611 0.21852,0.203589 0.40237,0.232539 1.47433,0.232539 1.06556,0 1.26461,-0.0309 1.52756,-0.237709 l 0.30231,-0.23771 v -2.005049 c 0,-1.975512 -0.004,-2.008651 -0.28164,-2.286162 -0.2632,-0.26321 -0.36033,-0.28163 -1.48518,-0.28163 z m 5.667869,0 c -1.780511,0 -1.82844,0.0653 -1.83244,2.557981 -0.004,1.895261 0.0011,1.93167 0.278011,2.208649 0.265149,0.265152 0.356338,0.28163 1.554429,0.28163 1.198079,0 1.288759,-0.01651 1.553909,-0.28163 0.27722,-0.276979 0.282022,-0.313388 0.278021,-2.208649 -0.005,-2.492661 -0.0514,-2.557981 -1.83193,-2.557981 z m 5.688539,0 c -1.022918,0 -1.22374,0.0321 -1.48518,0.237701 l -0.3023,0.237721 v 2.048449 2.04897 l 0.3023,0.23771 c 0.26302,0.206891 0.461402,0.237709 1.528591,0.237709 1.170249,0 1.239451,-0.0136 1.50482,-0.2961 0.27215,-0.289399 0.278019,-0.340299 0.278019,-2.247408 v -1.951302 l -0.321948,-0.276468 c -0.295272,-0.25399 -0.41933,-0.276982 -1.504302,-0.276982 z m 11.353311,0 c -1.14101,0 -1.23703,0.01799 -1.50068,0.28163 -0.27663,0.27704 -0.28163,0.313251 -0.28163,2.242241 0,1.92899 0.005,1.965719 0.28163,2.242759 0.26312,0.26312 0.3604,0.28163 1.48208,0.28163 0.660299,0 1.28433,-0.0321 1.38648,-0.0713 0.419571,-0.160998 0.52142,-0.65219 0.52142,-2.513539 v -1.79266 l -0.335389,-0.335381 c -0.328581,-0.32858 -0.359841,-0.33537 -1.553911,-0.33537 z"
     id="path5773" />
</svg>
