<?xml version="1.0" encoding="UTF-8" standalone="no"?>
<!-- Generator: Adobe Illustrator 24.0.2, SVG Export Plug-In . SVG Version: 6.00 Build 0)  -->

<svg
   version="1.1"
   id="Logo"
   x="0px"
   y="0px"
   viewBox="0 0 229.33 160.74"
   xml:space="preserve"
   width="229.33"
   height="160.74001"
   xmlns="http://www.w3.org/2000/svg"
   xmlns:svg="http://www.w3.org/2000/svg"><defs
   id="defs51" />
<style
   type="text/css"
   id="style2">
	.st0{fill:#03234B;}
</style>
<g
   id="g46"
   transform="translate(-47.07,-47.13)">
	<g
   id="g38">
		<g
   id="g22">
			<path
   class="st0"
   d="m 117.08,199.94 c -3.64,0 -6.39,-2.72 -6.39,-6.33 0,-4.23 3.21,-6.45 6.39,-6.45 3.44,0 6.24,2.88 6.24,6.42 0,3.57 -2.74,6.36 -6.24,6.36 m 6.12,-11.83 c -1.88,-2.71 -4.89,-3.01 -6.13,-3.01 -5.42,0 -8.65,4.28 -8.65,8.42 0,4.76 3.8,8.48 8.65,8.48 1.22,0 4.22,-0.3 6.13,-2.99 v 2.63 h 2.27 v -16.1 h -2.27 z"
   id="path4" />
			<path
   class="st0"
   d="m 141.76,194.05 c 0,2.82 -0.77,3.82 -1.62,4.68 -0.84,0.84 -1.91,1.25 -3.28,1.25 -1.53,0 -2.74,-0.5 -3.6,-1.47 -0.74,-0.93 -1.11,-2.28 -1.11,-4.11 v -8.86 h -2.27 v 8.89 c 0,2.28 0.48,4.02 1.42,5.18 0.73,0.91 2.41,2.42 5.55,2.42 3.15,0 4.56,-1.81 5.02,-2.62 v 2.22 h 2.15 v -16.1 h -2.27 v 8.52 z"
   id="path6" />
			<path
   class="st0"
   d="m 154.99,199.94 c -3.39,0 -6.15,-2.85 -6.15,-6.36 0,-3.54 2.76,-6.42 6.15,-6.42 3.41,0 6.18,2.88 6.18,6.42 0.01,2.56 -1.96,6.36 -6.18,6.36 m 6.07,-11.77 c -1.94,-2.77 -4.87,-3.07 -6.07,-3.07 -4.05,0 -8.42,3.26 -8.42,8.54 0,5.17 4.37,8.36 8.42,8.36 2,0 4.76,-0.83 6.07,-3.07 V 200 c 0,4.28 -3.04,5.81 -5.63,5.81 -3.85,0 -5.37,-2.75 -5.84,-3.93 l -0.03,-0.08 h -2.39 l 0.04,0.15 c 1.61,5.5 6.72,5.92 8.24,5.92 0.43,0 4.31,-0.08 6.4,-2.98 1.47,-1.98 1.47,-4.14 1.47,-5.88 v -13.48 h -2.27 v 2.64 z"
   id="path8" />
			<path
   class="st0"
   d="m 183.92,185.12 c -1.42,0 -4.09,0.62 -5.34,2.91 -1.25,-2.29 -3.93,-2.91 -5.35,-2.91 -1.45,0 -3.27,0.62 -4.21,1.96 v -1.55 h -2.27 v 16.12 h 2.27 v -9.32 c 0,-1.65 0.28,-2.49 0.71,-3.25 0.72,-1.22 1.96,-1.89 3.5,-1.89 1.54,0 2.78,0.67 3.5,1.89 0.43,0.76 0.71,1.61 0.71,3.25 v 9.32 h 2.27 v -9.32 c 0,-1.65 0.28,-2.49 0.71,-3.25 0.72,-1.22 1.96,-1.89 3.5,-1.89 1.54,0 2.78,0.67 3.5,1.89 0.43,0.76 0.71,1.61 0.71,3.25 v 9.32 h 2.27 v -9.56 c 0,-5.5 -4.07,-6.97 -6.48,-6.97"
   id="path10" />
			<path
   class="st0"
   d="m 195.41,192.37 c 0.6,-3.41 3.47,-5.19 6.04,-5.19 2.47,0 5.4,1.63 6.07,5.19 z m 6.01,-7.26 c -4.61,0.09 -8.36,3.89 -8.36,8.48 0,4.64 3.77,8.42 8.39,8.42 3.56,0 6.75,-2.27 7.92,-5.65 l 0.06,-0.16 h -2.4 l -0.03,0.08 c -0.61,1.65 -2.44,3.61 -5.58,3.67 -3.04,0 -5.82,-2.56 -6.03,-5.51 h 14.45 l 0.01,-0.11 c 0.11,-1.9 -0.31,-3.61 -1.23,-5.09 -1.14,-1.98 -3.62,-4.1 -7.2,-4.13"
   id="path12" />
			<path
   class="st0"
   d="m 219.98,185.12 c -2.38,0 -4.04,1.16 -4.82,2.26 v -1.86 h -2.27 v 16.12 h 2.27 v -8.86 c -0.03,-1.83 0.49,-3.34 1.45,-4.27 1.27,-1.24 2.9,-1.33 3.37,-1.33 0.47,0 2.1,0.1 3.37,1.33 0.95,0.92 1.47,2.44 1.47,4.27 v 8.86 h 2.27 v -8.86 c 0,-2.44 -0.69,-4.41 -2.01,-5.69 -1.36,-1.36 -2.93,-1.97 -5.1,-1.97"
   id="path14" />
			<polygon
   class="st0"
   points="232.93,185.53 229.6,185.53 229.6,187.6 232.93,187.6 232.93,201.65 235.2,201.65 235.2,187.6 239.01,187.6 239.01,185.53 235.2,185.53 235.2,179.91 232.93,179.91 "
   id="polygon16" />
			<path
   class="st0"
   d="m 242.65,192.36 c 0.6,-3.41 3.48,-5.19 6.05,-5.19 2.47,0 5.4,1.63 6.07,5.19 z m 6.02,-7.26 c -4.61,0.09 -8.36,3.89 -8.36,8.48 0,4.64 3.76,8.42 8.39,8.42 3.56,0 6.74,-2.27 7.92,-5.65 l 0.06,-0.16 h -2.4 l -0.03,0.08 c -0.61,1.65 -2.43,3.61 -5.58,3.67 -3.03,0 -5.82,-2.56 -6.03,-5.51 h 14.45 l 0.01,-0.11 c 0.11,-1.9 -0.31,-3.61 -1.23,-5.09 -1.14,-1.98 -3.63,-4.1 -7.2,-4.13"
   id="path18" />
			<path
   class="st0"
   d="m 268,199.95 c -3.64,0 -6.39,-2.72 -6.39,-6.33 0,-4.23 3.21,-6.44 6.39,-6.44 3.44,0 6.24,2.88 6.24,6.42 0,3.56 -2.74,6.35 -6.24,6.35 m 6.12,-20.03 v 8.17 c -2.04,-2.75 -5.19,-2.97 -6.13,-2.97 -5.42,0 -8.65,4.28 -8.65,8.42 0,4.75 3.8,8.48 8.65,8.48 1.95,0 4.57,-0.8 6.13,-2.99 v 2.62 h 2.27 v -21.72 h -2.27 z"
   id="path20" />
		</g>
		<g
   id="g36">
			<rect
   x="59.299999"
   y="179.36"
   class="st0"
   width="2.1600001"
   height="3.24"
   id="rect24" />
			<polygon
   class="st0"
   points="47.24,181.95 49.8,181.95 49.8,199.61 47.07,199.61 47.07,201.64 54.48,201.64 54.48,199.61 51.95,199.61 51.95,179.92 47.24,179.92 "
   id="polygon26" />
			<polygon
   class="st0"
   points="57.27,187.57 59.83,187.57 59.83,199.61 57.21,199.61 57.21,201.64 64.53,201.64 64.53,199.61 61.98,199.61 61.98,185.53 57.27,185.53 "
   id="polygon28" />
			<path
   class="st0"
   d="m 70.86,180.95 c -1.41,1.26 -1.46,2.71 -1.52,4.47 v 0.11 h -2.56 v 2.09 h 2.59 v 11.98 h -2.59 v 2.04 h 7.35 v -2.04 h -2.61 v -11.98 h 2.61 v -2.09 h -2.61 v -0.35 c 0.03,-1.16 0.05,-2.17 1.03,-2.9 0.52,-0.43 1.2,-0.66 2.05,-0.73 l 0.11,-0.01 v -1.95 l -0.12,0.01 c -1.69,0.12 -2.84,0.53 -3.73,1.35"
   id="path30" />
			<path
   class="st0"
   d="m 79.33,192.69 c 0.42,-2.85 3.02,-5.15 5.87,-5.15 3.14,0 5.74,2.16 6.22,5.15 z m 5.9,-7.16 c -4.47,0 -8.11,3.73 -8.11,8.32 0,4.49 3.69,8.14 8.23,8.14 3.24,0 6.19,-1.9 7.51,-4.84 l 0.07,-0.17 H 90.6 l -0.04,0.06 c -1.08,1.88 -3.01,2.96 -5.28,2.96 -3.14,0 -5.73,-2.39 -5.97,-5.47 h 14.2 v -0.71 c 0.01,-4.65 -3.63,-8.29 -8.28,-8.29"
   id="path32" />
			<path
   class="st0"
   d="m 100.87,202.07 c 1.54,0 2.79,-1.25 2.79,-2.79 0,-1.54 -1.25,-2.79 -2.79,-2.79 -1.54,0 -2.79,1.25 -2.79,2.79 0,1.54 1.25,2.79 2.79,2.79"
   id="path34" />
		</g>
	</g>
	<path
   class="st0"
   d="m 274.76,47.13 -156.74,0.01 c 0,0 0.01,0.01 0.01,0.01 -11.89,0 -22.11,7.11 -26.55,17.25 l -30.94,74.53 c -0.08,0.19 -0.13,0.4 -0.13,0.63 0,0.89 0.74,1.62 1.64,1.62 h 70.77 c 5.03,0 7.22,-4.84 3.3,-8.71 L 110.13,108.15 C 96.47,94.76 102.33,63.71 130.7,63.71 h 138.55 c 0.72,0 1.33,-0.46 1.55,-1.09 l 5.48,-13.25 c 0.08,-0.19 0.12,-0.4 0.12,-0.62 0,-0.9 -0.73,-1.62 -1.64,-1.62 z"
   id="path40" />
	<path
   class="st0"
   d="m 259.15,85.06 -26.61,0.03 c -1.79,0 -3.34,1.08 -3.98,2.63 l -29.81,72.03 c -0.12,0.22 -0.19,0.48 -0.19,0.75 0,0.89 0.74,1.61 1.64,1.61 h 9.93 v -0.01 c 12.06,0 22.47,-7.3 26.81,-17.67 0,0 0.02,0.01 0.03,0.02 l 23.69,-57.19 c 0.07,-0.19 0.12,-0.39 0.12,-0.6 0,-0.88 -0.73,-1.6 -1.63,-1.6 z"
   id="path42" />
	<path
   class="st0"
   d="m 206.85,86.68 c 0,-0.9 -0.74,-1.62 -1.64,-1.62 h -75.43 c -4.09,0 -7.67,5.03 -3.34,9.02 l 24.92,23.19 c 0,0 10.09,9.3 7.93,22.61 -1.91,11.72 -9.9,18.89 -15.69,21.47 h -0.02 c -0.14,0.07 -0.23,0.21 -0.23,0.36 0,0.22 0.18,0.41 0.41,0.41 h 29.07 c 1.8,0 3.34,-1.08 3.98,-2.63 l 29.92,-72.24 c 0.08,-0.18 0.12,-0.37 0.12,-0.57 z"
   id="path44" />
</g>
</svg>
